{"title":"Iron Man 3 2013 720p WEBDL DTS x264 Worldwide7477","uid":8816721,"size":3246196512,"categoryP":"video","categoryS":"hd___movies","magnet":"?xt=urn:btih:1f30f7df6397ab97fdcda04f5380aed9541461b2&amp;dn=Iron+Man+3+2013+720p+WEBDL+DTS+x264+Worldwide7477&amp;tr=udp%3A%2F%2Ftracker.openbittorrent.com%3A80&amp;tr=udp%3A%2F%2Fopen.demonii.com%3A1337&amp;tr=udp%3A%2F%2Ftracker.coppersurfer.tk%3A6969&amp;tr=udp%3A%2F%2Fexodus.desync.com%3A6969","seeders":2,"leechers":1,"uploader":"AliBaloch","files":-1,"time":1376603528,"description":" &lt;a href=&quot;http://i874.photobucket.com/albums/ab306/worldwide7477/Custom%20Covers/Iron-Man-3-2013-Custom-Movie-Cover-Worldwide7477_zpsc491cf8a.png&quot; rel=&quot;nofollow&quot; target=&quot;_NEW&quot;&gt;http://i874.photobucket.com/albums/ab306/worldwide7477/Custom%20Covers/Iron-Man-3-2013-Custom-Movie-Cover-Worldwide7477_zpsc491cf8a.png&lt;/a&gt;\n\nComplete name                            : C:UsersUserVideosIron Man 3 2013 720p WEBDL DTS x264 Worldwide7477Iron Man 3 2013 720p WEBDL DTS x264 Worldwide7477.mkv\nFormat                                   : Matroska\nFormat version                           : Version 4 / Version 2\nFile size                                : 2.98 GiB\nDuration                                 : 2h 11mn\nOverall bit rate                         : 3 251 Kbps\nMovie name                               : Iron Man 3 2013 720p WEBDL Encoder Worldwide7477\n\nVideo\nFormat                                   : AVC\nFormat/Info                              : Advanced Video Codec\nFormat profile                           : &lt;a class=&quot;__cf_email__&quot; href=&quot;/cdn-cgi/l/email-protection&quot; data-cfemail=&quot;c28aaba5aa828ef6ecf3&quot;&gt;[email&amp;#160;protected]&lt;/a&gt;&lt;script cf-hash='f9e31' type=&quot;text/javascript&quot;&gt;\n/* &lt;![CDATA[ */!function(){try{var t=&quot;currentScript&quot;in document?document.currentScript:function(){for(var t=document.getElementsByTagName(&quot;script&quot;),e=t.length;e--;)if(t[e].getAttribute(&quot;cf-hash&quot;))return t[e]}();if(t&amp;&amp;t.previousSibling){var e,r,n,i,c=t.previousSibling,a=c.getAttribute(&quot;data-cfemail&quot;);if(a){for(e=&quot;&quot;,r=parseInt(a.substr(0,2),16),n=2;a.length-n;n+=2)i=parseInt(a.substr(n,2),16)^r,e+=String.fromCharCode(i);e=document.createTextNode(e),c.parentNode.replaceChild(e,c)}}}catch(u){}}();/* ]]&gt; */&lt;/script&gt;\nFormat settings, CABAC                   : Yes\nFormat settings, ReFrames                : 4 frames\nCodec ID                                 : V_MPEG4/ISO/AVC\nDuration                                 : 2h 11mn\nBit rate                                 : 2 499 Kbps\nWidth                                    : 1 280 pixels\nHeight                                   : 528 pixels\nDisplay aspect ratio                     : 2.40:1\nFrame rate mode                          : Constant\nFrame rate                               : 23.976 fps\nColor space                              : YUV\nChroma subsampling                       : 4:2:0\nBit depth                                : 8 bits\nScan type                                : Progressive\nBits/(Pixel*Frame)                       : 0.154\nStream size                              : 2.23 GiB (75%)\nTitle                                    : Iron Man 3 2013 720p WEBDL DTS x264 Worldwide7477\nLanguage                                 : English\nDefault                                  : Yes\nForced                                   : No\n\nAudio\nID                                       : 2\nFormat                                   : DTS\nFormat/Info                              : Digital Theater Systems\nMode                                     : 16\nFormat settings, Endianness              : Big\nCodec ID                                 : A_DTS\nDuration                                 : 2h 11mn\nBit rate mode                            : Constant\nBit rate                                 : 755 Kbps\nChannel(s)                               : 6 channels\nChannel positions                        : Front: L C R, Side: L R, LFE\nSampling rate                            : 48.0 KHz\nBit depth                                : 24 bits\nCompression mode                         : Lossy\nStream size                              : 709 MiB (23%)\nTitle                                    : Worldwide7477 (DTS)\nLanguage                                 : English\nDefault                                  : Yes\nForced                                   : No\n &lt;a href=&quot;\nhttp://img268.imageshack.us/img268/7579/egdb.png&quot; rel=&quot;nofollow&quot; target=&quot;_NEW&quot;&gt;\nhttp://img268.imageshack.us/img268/7579/egdb.png&lt;/a&gt;\n &lt;a href=&quot;\nhttp://img202.imageshack.us/img202/2721/o32t.png&quot; rel=&quot;nofollow&quot; target=&quot;_NEW&quot;&gt;\nhttp://img202.imageshack.us/img202/2721/o32t.png&lt;/a&gt;\n &lt;a href=&quot;\nhttp://img19.imageshack.us/img19/308/r560.png&quot; rel=&quot;nofollow&quot; target=&quot;_NEW&quot;&gt;\nhttp://img19.imageshack.us/img19/308/r560.png&lt;/a&gt;\n &lt;a href=&quot;\nhttp://img51.imageshack.us/img51/7635/wrqp.png&quot; rel=&quot;nofollow&quot; target=&quot;_NEW&quot;&gt;\nhttp://img51.imageshack.us/img51/7635/wrqp.png&lt;/a&gt;\n &lt;a href=&quot;\nhttp://img194.imageshack.us/img194/3421/xdac.png&quot; rel=&quot;nofollow&quot; target=&quot;_NEW&quot;&gt;\nhttp://img194.imageshack.us/img194/3421/xdac.png&lt;/a&gt;\n &lt;a href=&quot;\nhttp://img541.imageshack.us/img541/16/zxg0.png&quot; rel=&quot;nofollow&quot; target=&quot;_NEW&quot;&gt;\nhttp://img541.imageshack.us/img541/16/zxg0.png&lt;/a&gt;","torrent":{"xt":"urn:btih:1f30f7df6397ab97fdcda04f5380aed9541461b2","amp;dn":"Iron+Man+3+2013+720p+WEBDL+DTS+x264+Worldwide7477","amp;tr":["udp%3A%2F%2Ftracker.openbittorrent.com%3A80","udp%3A%2F%2Fopen.demonii.com%3A1337","udp%3A%2F%2Ftracker.coppersurfer.tk%3A6969","udp%3A%2F%2Fexodus.desync.com%3A6969"],"infoHash":"1f30f7df6397ab97fdcda04f5380aed9541461b2","infoHashBuffer":{"type":"Buffer","data":[31,48,247,223,99,151,171,151,253,205,160,79,83,128,174,217,84,20,97,178]},"announce":[],"urlList":[]}}